HIERARCHY
ROOT Hips
{
  OFFSET 1.44925e-005 102.336 -0.101585
  CHANNELS 6 Xposition Yposition Zposition Zrotation Xrotation Yrotation
  JOINT RightUpLeg
  {
    OFFSET -8.9458 -8.66707 0.101652
    CHANNELS 3 Zrotation Xrotation Yrotation
    JOINT RightLeg
    {
      OFFSET 0 -44.4227 1.3727
      CHANNELS 3 Zrotation Xrotation Yrotation
      JOINT RightFoot
      {
        OFFSET 0.253549 -42.0924 -1.46059
        CHANNELS 3 Zrotation Xrotation Yrotation
        JOINT RightToes
        {
          OFFSET 0.04 -4.41509 8.4991
          CHANNELS 3 Zrotation Xrotation Yrotation
          End Site
          {
            OFFSET -0.08 -0.137448 9.77979
          }
        }
      }
    }
  }
  JOINT Spine
  {
    OFFSET 0 11.8905 0
    CHANNELS 3 Zrotation Xrotation Yrotation
    JOINT Spine1
    {
      OFFSET 0 25.6574 0.127663
      CHANNELS 3 Zrotation Xrotation Yrotation
      JOINT HEad
      {
        OFFSET 0 8.73416 0.011341
        CHANNELS 3 Zrotation Xrotation Yrotation
        End Site
        {
          OFFSET -0.29 12.7742 2.51395
        }
      }
      JOINT LeftShoulder1
      {
        OFFSET 8.99 -0.362252 -0.22
        CHANNELS 3 Zrotation Xrotation Yrotation
        JOINT LeftArm
        {
          OFFSET 10.2827 -0.00337999 0.322123
          CHANNELS 3 Zrotation Xrotation Yrotation
          JOINT LeftForeArm
          {
            OFFSET 26.2597 0.099144 -1.42434
            CHANNELS 3 Zrotation Xrotation Yrotation
            JOINT LeftHand
            {
              OFFSET 22.0902 0.085362 1.02216
              CHANNELS 3 Zrotation Xrotation Yrotation
              End Site
              {
                OFFSET 13.419 -0.6 1.50291
              }
            }
          }
        }
      }
      JOINT RightShoulder
      {
        OFFSET -8.99 -0.362252 -0.22
        CHANNELS 3 Zrotation Xrotation Yrotation
        JOINT RightArm
        {
          OFFSET -10.2827 -0.00338 0.322123
          CHANNELS 3 Zrotation Xrotation Yrotation
          JOINT RightForeArm
          {
            OFFSET -26.364 0.099144 -1.42434
            CHANNELS 3 Zrotation Xrotation Yrotation
            JOINT RightHand
            {
              OFFSET -22.0324 0.085362 1.02216
              CHANNELS 3 Zrotation Xrotation Yrotation
              End Site
              {
                OFFSET -13.3284 -0.6 1.50291
              }
            }
          }
        }
      }
    }
  }
  JOINT LeftUpLeg
  {
    OFFSET 8.9458 -8.66707 0.101652
    CHANNELS 3 Zrotation Xrotation Yrotation
    JOINT LeftLeg
    {
      OFFSET 0 -44.4227 1.3727
      CHANNELS 3 Zrotation Xrotation Yrotation
      JOINT LeftFoot
      {
        OFFSET -0.253549 -42.0924 -1.46059
        CHANNELS 3 Zrotation Xrotation Yrotation
        JOINT LeftToes
        {
          OFFSET -0.04 -4.41509 8.4991
          CHANNELS 3 Zrotation Xrotation Yrotation
          End Site
          {
            OFFSET 0.08 -0.047448 9.77979
          }
        }
      }
    }
  }
}
MOTION
Frames:	14
Frame Time:	0.0333333
-5.73103 105.085 39.9275 1.37568 7.47401 -178.221 -11.0625 9.43315 -8.8182 0.543347 9.84701 -10.1074 15.0661 -7.39517 -0.210876 0.0462048 0.000530889 0.662642 0.865127 -2.44604 0.094072 1.27727 7.1841 -0.381805 0.679226 15.9486 -1.79455 -28.3414 1.49275 -0.829687 -49.5627 -20.3118 -12.7551 -9.9497 33.7683 -1.57775 2.68589 9.78358 -1.24281 37.1987 5.24472 8.06677 30.0893 -33.3108 -5.61879 3.40999 39.759 8.29855 -35.8769 8.38995 -0.575281 16.1603 5.97986 9.74047 -1.65184 12.7804 -0.370325 -14.7407 -6.73176 0.145554 -1.35869e-009 8.75238e-006 -1.4732e-008 
-5.73103 105.088 39.9567 1.39981 7.43963 -178.234 -11.0315 9.3794 -8.79371 0.537099 9.83427 -10.1412 15.0454 -7.37427 -0.210866 0.0462048 0.000530889 0.662642 0.998103 -2.32222 0.0940636 1.12417 6.99734 -0.355718 0.591554 15.9072 -1.69645 -28.2975 1.50479 -0.870051 -49.5511 -20.3011 -12.7206 -9.972 33.64 -1.52661 3.04696 9.75132 -1.89024 37.215 5.24942 8.07303 30.1114 -33.3034 -5.63536 3.42314 39.6045 8.33121 -35.4698 8.44315 -0.68803 16.1829 5.92806 9.75594 -1.65645 12.7813 -0.359778 -14.7195 -6.72613 0.146356 -1.35869e-009 8.75238e-006 -1.4732e-008 
-5.73103 105.096 39.9965 1.42399 7.41088 -178.248 -10.9976 9.32807 -8.76989 0.53151 9.81314 -10.1802 14.996 -7.34249 -0.211657 0.0462048 0.000530889 0.662642 1.17149 -2.11767 0.0940506 0.938219 6.73339 -0.316731 0.425212 15.756 -1.51509 -28.2088 1.52726 -0.946502 -49.5697 -20.2601 -12.7069 -10.0387 33.4338 -1.3805 3.55945 9.70133 -2.72052 37.246 5.26146 8.09202 30.1141 -33.2591 -5.65444 3.45629 39.4238 8.37461 -34.941 8.51612 -0.851202 16.2133 5.89902 9.78095 -1.68 12.7358 -0.357107 -14.6978 -6.68934 0.150469 -1.35869e-009 8.75238e-006 -1.4732e-008 
-5.73103 105.104 40.0268 1.42287 7.41799 -178.247 -10.996 9.32405 -8.77522 0.53623 9.7971 -10.1855 14.957 -7.31802 -0.214851 0.0462048 0.000530889 0.662642 1.26129 -1.90213 0.0921436 0.857727 6.51196 -0.292353 0.253741 15.5149 -1.33697 -28.094 1.55483 -1.04156 -49.6307 -20.2201 -12.7114 -10.0968 33.489 -1.24081 3.68419 9.68866 -2.88292 37.2639 5.27226 8.11179 30.1063 -33.1832 -5.63334 3.50921 39.3837 8.36601 -34.708 8.55642 -0.952291 16.2272 5.92243 9.80092 -1.71383 12.6673 -0.374092 -14.6934 -6.638 0.156768 -1.35869e-009 8.75238e-006 -1.4732e-008 
-5.73103 105.107 40.0526 1.41102 7.45048 -178.204 -11.0068 9.3659 -8.79666 0.55473 9.77639 -10.1981 14.9463 -7.29833 -0.21807 0.0462048 0.000530889 0.662642 1.28237 -1.68346 0.0726572 0.854223 6.31504 -0.308235 0.144574 15.2701 -1.17615 -27.9752 1.58546 -1.14675 -49.7068 -20.2508 -12.6758 -10.0689 34.0626 -1.21562 3.31877 9.72401 -2.41164 37.2513 5.28034 8.13374 30.1365 -33.122 -5.57556 3.55528 39.4519 8.3192 -34.7183 8.5857 -1.05134 16.2338 5.93543 9.81416 -1.72956 12.6517 -0.434044 -14.6891 -6.60679 0.160709 -1.35869e-009 8.75238e-006 -1.4732e-008 
-5.73103 105.108 40.0814 1.40929 7.47679 -178.118 -11.0003 9.42095 -8.80978 0.581087 9.73495 -10.2618 14.9336 -7.27133 -0.221212 0.0462048 0.000530889 0.662642 1.31626 -1.4768 0.0129448 0.82944 6.10869 -0.362267 0.0946758 15.0872 -0.955801 -27.8831 1.61278 -1.23925 -49.7637 -20.3389 -12.6033 -9.99154 34.7647 -1.23188 2.95325 9.75536 -2.02478 37.211 5.29451 8.17731 30.2242 -33.0898 -5.52367 3.57142 39.5214 8.29825 -34.7071 8.63889 -1.22724 16.2495 5.89712 9.8265 -1.72398 12.6885 -0.530558 -14.6659 -6.59419 0.162038 -1.35869e-009 8.75238e-006 -1.4732e-008 
-5.73199 105.113 40.1097 1.4062 7.46657 -178.053 -10.9989 9.42911 -8.82219 0.603706 9.69534 -10.316 14.8981 -7.24031 -0.224115 0.0462048 0.000530889 0.662642 1.39344 -1.32048 -0.0492919 0.742448 5.90745 -0.40495 0.0476947 14.9576 -0.652198 -27.8357 1.62788 -1.29013 -49.776 -20.3525 -12.5547 -10.0114 34.8018 -1.14184 3.09248 9.7447 -2.10844 37.1638 5.31653 8.24086 30.341 -33.0555 -5.48975 3.58038 39.5816 8.29108 -34.6192 8.6731 -1.33002 16.2565 5.84615 9.83669 -1.73162 12.6864 -0.588293 -14.6391 -6.5662 0.165092 -1.35869e-009 8.75238e-006 -1.4732e-008 
-5.73656 105.121 40.1347 1.37979 7.41465 -178.066 -11.0427 9.35256 -8.85679 0.616267 9.69788 -10.2758 14.8692 -7.21818 -0.226845 0.0462048 0.000530889 0.662642 1.48132 -1.21186 -0.0662355 0.622818 5.72134 -0.389523 -0.0276715 14.8084 -0.378845 -27.8222 1.63126 -1.30194 -49.7321 -20.2074 -12.5442 -10.1718 34.0434 -0.98066 3.61508 9.70432 -2.40879 37.1382 5.33601 8.29263 30.4459 -33.0155 -5.44808 3.61251 39.6775 8.22965 -34.5572 8.62412 -1.15793 16.2269 5.82293 9.83646 -1.77172 12.6031 -0.543858 -14.636 -6.51167 0.171806 -1.35869e-009 8.75238e-006 -1.4732e-008 
-5.74417 105.128 40.1616 1.34105 7.35008 -178.117 -11.1122 9.23893 -8.90431 0.623672 9.72866 -10.1883 14.8788 -7.20092 -0.228748 0.0462048 0.000530889 0.662642 1.55337 -1.0974 -0.0512662 0.511847 5.52368 -0.341973 -0.135753 14.5766 -0.250978 -27.8321 1.63298 -1.30563 -49.639 -20.0169 -12.5245 -10.3312 33.4099 -0.919077 3.92982 9.67999 -2.5397 37.1447 5.34797 8.31821 30.518 -33.0014 -5.40291 3.64743 39.7855 8.13601 -34.5152 8.52963 -0.835498 16.174 5.79991 9.82362 -1.81147 12.5192 -0.447941 -14.6495 -6.46258 0.17797 -1.35869e-009 8.75238e-006 -1.4732e-008 
-5.75497 105.131 40.1897 1.32203 7.30948 -178.117 -11.1474 9.17882 -8.92942 0.632603 9.72881 -10.1752 14.9075 -7.17281 -0.229772 0.0462048 0.000530889 0.662642 1.62326 -0.945186 -0.060767 0.418525 5.29447 -0.329309 -0.298314 14.2942 -0.241365 -27.8718 1.63884 -1.3174 -49.5241 -19.9652 -12.4724 -10.3534 33.7847 -0.991356 3.63045 9.70532 -2.30984 37.1601 5.36017 8.34185 30.5572 -32.9987 -5.39962 3.65493 39.8368 8.10649 -34.4438 8.49046 -0.693686 16.1411 5.7393 9.80906 -1.81441 12.5214 -0.40964 -14.6453 -6.44731 0.180117 -1.35869e-009 8.75238e-006 -1.4732e-008 
-5.76671 105.133 40.213 1.32948 7.29684 -178.073 -11.1363 9.18003 -8.92114 0.63864 9.6913 -10.2373 14.9195 -7.1367 -0.230245 0.0462048 0.000530889 0.662642 1.72604 -0.766304 -0.105524 0.302469 5.03265 -0.354314 -0.519813 14.0752 -0.242762 -27.9239 1.64804 -1.3372 -49.4211 -20.052 -12.4078 -10.2805 34.8199 -1.06489 2.91019 9.76136 -1.81296 37.1647 5.37738 8.37997 30.5748 -32.9495 -5.44863 3.66452 39.8097 8.13912 -34.3974 8.51689 -0.775629 16.1433 5.66462 9.80749 -1.79775 12.5813 -0.445389 -14.6167 -6.45149 0.181236 -1.35869e-009 8.75238e-006 -1.4732e-008 
-5.77644 105.134 40.2368 1.3391 7.28771 -178.073 -11.128 9.15781 -8.90721 0.633438 9.68084 -10.2519 14.9215 -7.11383 -0.230373 0.0462048 0.000530889 0.662642 1.87228 -0.569746 -0.135899 0.119698 4.7402 -0.349563 -0.731827 13.9741 -0.205571 -27.9371 1.66291 -1.37899 -49.3593 -20.0959 -12.3504 -10.2736 35.3595 -1.03025 2.40858 9.79765 -1.40892 37.1777 5.39215 8.41009 30.5876 -32.8648 -5.48906 3.71996 39.751 8.11796 -34.4045 8.52498 -0.803904 16.1524 5.62201 9.8207 -1.80362 12.6162 -0.461616 -14.5961 -6.44677 0.181879 -1.35869e-009 8.75238e-006 -1.4732e-008 
-5.78309 105.135 40.272 1.3312 7.27271 -178.141 -11.1577 9.07247 -8.91555 0.622549 9.73424 -10.1694 14.9345 -7.11188 -0.230353 0.0462048 0.000530889 0.662642 2.00946 -0.356502 -0.123274 -0.0865808 4.43973 -0.290411 -0.857592 13.9097 -0.147833 -27.8994 1.68542 -1.45036 -49.361 -20.0072 -12.325 -10.3861 34.9446 -0.891093 2.54577 9.78836 -1.4761 37.2196 5.39787 8.41134 30.6096 -32.8248 -5.46489 3.79745 39.7513 7.99313 -34.3783 8.48118 -0.652557 16.1394 5.61292 9.83284 -1.83205 12.6099 -0.397862 -14.6006 -6.43133 0.182121 -1.35869e-009 8.75238e-006 -1.4732e-008 
-5.78658 105.136 40.3147 1.31261 7.27161 -178.208 -11.2026 8.98491 -8.94092 0.618544 9.81655 -10.0754 14.9334 -7.12006 -0.230372 0.0462048 0.000530889 0.662642 2.06737 -0.136074 -0.0997983 -0.209849 4.16164 -0.234435 -0.906045 13.789 -0.0952996 -27.8691 1.70584 -1.51467 -49.4244 -19.9094 -12.366 -10.5104 34.3152 -0.692723 3.01897 9.75119 -2.01379 37.2782 5.40151 8.40309 30.6236 -32.8259 -5.41019 3.84811 39.8706 7.85379 -34.3089 8.44276 -0.512624 16.1098 5.61017 9.82879 -1.84696 12.6084 -0.311136 -14.6082 -6.41922 0.182041 -1.35869e-009 8.75238e-006 -1.4732e-008 
